Coordinates
version=1
nRows=7
nColumns=40
inDegrees=yes

Units are S.I. units (second, meters, Newtons, ...)
If the header above contains a line with 'inDegrees', this indicates whether rotational values are in degrees (yes) or radians (no).

endheader
time	pelvis_tilt	pelvis_list	pelvis_rotation	pelvis_tx	pelvis_ty	pelvis_tz	hip_flexion_r	hip_adduction_r	hip_rotation_r	knee_angle_r	knee_angle_r_beta	ankle_angle_r	subtalar_angle_r	mtp_angle_r	hip_flexion_l	hip_adduction_l	hip_rotation_l	knee_angle_l	knee_angle_l_beta	ankle_angle_l	subtalar_angle_l	mtp_angle_l	lumbar_extension	lumbar_bending	lumbar_rotation	arm_flex_r	arm_add_r	arm_rot_r	elbow_flex_r	pro_sup_r	wrist_flex_r	wrist_dev_r	arm_flex_l	arm_add_l	arm_rot_l	elbow_flex_l	pro_sup_l	wrist_flex_l	wrist_dev_l
      4.52000000	    -20.00873094	      3.07048080	     -0.53296237	     -0.28804580	      0.92254065	     -0.88598746	     51.04548875	    -13.22367426	     -5.04779751	     54.40453517	      0.94953827	     25.09163856	      0.00000000	      0.00000000	     50.35550649	     -6.58624288	     -0.32983034	     54.06022895	      0.94352899	     24.84950122	      0.00000000	      0.00000000	    -28.03941568	     -0.30130182	     -5.75812564	    -13.98389129	    -58.11890028	     51.03263398	    105.01944110	     87.64379000	      0.00000000	      0.00000000	    -27.62312470	    -53.68389950	     32.82400865	     97.88553965	     87.99214768	      0.00000000	      0.00000000
      4.52500000	    -19.35557055	      3.02294367	     -0.64281918	     -0.28258354	      0.93096962	     -0.88560554	     49.10939374	    -13.19231562	     -5.78160088	     52.59394320	      0.91793748	     24.19476156	      0.00000000	      0.00000000	     48.47754465	     -6.76194827	     -0.85222387	     52.36515532	      0.91394437	     23.93181099	      0.00000000	      0.00000000	    -27.50874934	     -0.33112553	     -5.67419123	    -15.76679878	    -57.73755090	     48.98086804	    104.97245997	     87.65357114	      0.00000000	      0.00000000	    -29.39371207	    -53.00017809	     30.70963099	     98.24202870	     88.00214431	      0.00000000	      0.00000000
      4.53000000	    -18.65881569	      2.92322485	     -0.81438567	     -0.27711937	      0.93981535	     -0.88499812	     47.04072633	    -13.02221517	     -6.49476915	     50.59822769	      0.88310567	     23.30316016	      0.00000000	      0.00000000	     46.51399797	     -7.03960660	     -1.44888408	     50.58107254	      0.88280625	     22.92970408	      0.00000000	      0.00000000	    -27.03108024	     -0.35048393	     -5.52471912	    -17.26454472	    -57.43022145	     47.20061459	    105.05692153	     87.59501550	      0.00000000	      0.00000000	    -30.97594512	    -52.42231026	     28.93797240	     98.68118332	     87.99392209	      0.00000000	      0.00000000
      4.53500000	    -18.26109870	      2.94946181	     -0.95165978	     -0.27174677	      0.94875314	     -0.88430568	     45.26407868	    -12.91195180	     -7.10181075	     48.41462633	      0.84499464	     22.05451093	      0.00000000	      0.00000000	     44.79844969	     -7.19898220	     -2.13670616	     48.61618333	      0.84851247	     21.52784546	      0.00000000	      0.00000000	    -26.12963104	     -0.49837616	     -5.41740799	    -18.17258287	    -57.06512631	     46.39522925	    104.86175010	     87.58340512	      0.00000000	      0.00000000	    -31.97579457	    -52.03040199	     28.06917256	     98.95251168	     87.97773265	      0.00000000	      0.00000000
      4.54000000	    -17.23715326	      2.88029122	     -1.02566279	     -0.26555431	      0.95895417	     -0.88377896	     42.64729259	    -12.86667004	     -8.13912200	     46.10666082	      0.80471304	     20.81092682	      0.00000000	      0.00000000	     42.25016669	     -7.36215326	     -2.86971589	     46.40274926	      0.80988076	     20.29162819	      0.00000000	      0.00000000	    -26.07316240	     -0.50656809	     -5.36348934	    -19.83053500	    -56.64086101	     44.41125569	    104.92547749	     87.57247094	      0.00000000	      0.00000000	    -33.68239163	    -51.43095426	     26.13423046	     99.48904634	     87.99358853	      0.00000000	      0.00000000
      4.54500000	    -16.63443978	      2.93766099	     -1.15593512	     -0.25968020	      0.96896704	     -0.88321034	     40.48736762	    -12.77719090	     -8.85083185	     43.58766943	      0.76074834	     19.19676925	      0.00000000	      0.00000000	     40.16028835	     -7.42011063	     -3.60265989	     44.15779884	      0.77069898	     18.51907840	      0.00000000	      0.00000000	    -25.49488712	     -0.66505059	     -5.30995036	    -20.87354731	    -56.21802796	     43.33539470	    104.74267765	     87.54240811	      0.00000000	      0.00000000	    -34.81044661	    -50.95368392	     25.07689745	     99.88913258	     87.98020005	      0.00000000	      0.00000000
      4.55000000	    -15.82778468	      2.96066862	     -1.27308929	     -0.25365190	      0.97939993	     -0.88257159	     38.05840024	    -12.68732279	     -9.80662631	     41.03326654	      0.71616560	     17.71193810	      0.00000000	      0.00000000	     37.78067269	     -7.51305976	     -4.52631867	     41.78643868	      0.72931094	     16.96853583	      0.00000000	      0.00000000	    -25.23243543	     -0.74516035	     -3.93572687	    -25.97563303	    -54.89754998	     37.86283750	    105.04710616	     87.62490191	      0.00000000	      0.00000000	    -33.82573045	    -51.58855079	     26.15821300	    100.45603262	     88.01048873	      0.00000000	      0.00000000
